<svg width="25" height="24" viewBox="0 0 25 24" fill="none" xmlns="http://www.w3.org/2000/svg">
<path d="M3.146 4.146C3 4.293 3 4.53 3 5V19C3 19.471 3 19.707 3.146 19.854C3.293 20 3.53 20 4 20C4.47 20 4.707 20 4.854 19.854C5 19.707 5 19.47 5 19V5C5 4.529 5 4.293 4.854 4.146C4.707 4 4.47 4 4 4C3.53 4 3.293 4 3.146 4.146ZM13.176 4.176C13 4.35 13 4.634 13 5.2V18.8C13 19.366 13 19.648 13.176 19.824C13.351 20 13.634 20 14.2 20H14.3C14.866 20 15.148 20 15.324 19.824C15.5 19.648 15.5 19.366 15.5 18.8V5.2C15.5 4.634 15.5 4.351 15.324 4.176C15.15 4 14.866 4 14.3 4H14.2C13.634 4 13.352 4 13.176 4.176ZM6.5 4.75C6.5 4.517 6.5 4.4 6.538 4.309C6.58874 4.18683 6.68583 4.08974 6.808 4.039C6.902 4 7.018 4 7.25 4C7.482 4 7.6 4 7.691 4.038C7.81317 4.08874 7.91026 4.18583 7.961 4.308C8 4.402 8 4.518 8 4.75V19.25C8 19.483 8 19.6 7.962 19.691C7.91126 19.8132 7.81417 19.9103 7.692 19.961C7.598 20 7.482 20 7.25 20C7.018 20 6.9 20 6.809 19.962C6.68683 19.9113 6.58974 19.8142 6.539 19.692C6.5 19.599 6.5 19.483 6.5 19.25V4.75ZM20.538 4.309C20.5 4.401 20.5 4.517 20.5 4.75V19.25C20.5 19.483 20.5 19.6 20.538 19.691C20.5887 19.8132 20.6858 19.9103 20.808 19.961C20.901 20 21.017 20 21.25 20C21.483 20 21.6 20 21.691 19.962C21.8132 19.9113 21.9103 19.8142 21.961 19.692C22 19.599 22 19.483 22 19.25V4.75C22 4.517 22 4.4 21.962 4.309C21.9113 4.18683 21.8142 4.08974 21.692 4.039C21.598 4 21.482 4 21.25 4C21.018 4 20.9 4 20.809 4.038C20.6868 4.08874 20.5897 4.18583 20.539 4.308L20.538 4.309ZM10 4.5C10 4.313 10 4.22 10.04 4.15C10.0664 4.1043 10.1043 4.06636 10.15 4.04C10.22 4 10.313 4 10.5 4C10.687 4 10.78 4 10.85 4.04C10.8957 4.06636 10.9336 4.1043 10.96 4.15C11 4.22 11 4.313 11 4.5V19.5C11 19.687 11 19.78 10.96 19.85C10.9336 19.8957 10.8957 19.9336 10.85 19.96C10.78 20 10.687 20 10.5 20C10.313 20 10.22 20 10.15 19.96C10.1043 19.9336 10.0664 19.8957 10.04 19.85C10 19.78 10 19.687 10 19.5V4.5ZM17.54 4.15C17.5 4.22 17.5 4.313 17.5 4.5V19.5C17.5 19.687 17.5 19.78 17.54 19.85C17.5664 19.8957 17.6043 19.9336 17.65 19.96C17.72 20 17.813 20 18 20C18.187 20 18.28 20 18.35 19.96C18.3957 19.9336 18.4336 19.8957 18.46 19.85C18.5 19.78 18.5 19.687 18.5 19.5V4.5C18.5 4.313 18.5 4.22 18.46 4.15C18.4336 4.1043 18.3957 4.06636 18.35 4.04C18.28 4 18.187 4 18 4C17.813 4 17.72 4 17.65 4.04C17.6043 4.06636 17.5664 4.1043 17.54 4.15Z" fill="#292D32"/>
</svg>
