<svg width="24" height="24" viewBox="0 0 24 24" fill="none" xmlns="http://www.w3.org/2000/svg">
<path d="M18.738 6.13875C18.6766 4.69049 18.0586 3.32181 17.0129 2.31791C15.9673 1.31402 14.5745 0.752369 13.125 0.75H6.29362C6.01741 0.749744 5.75075 0.85111 5.54446 1.03479C5.33817 1.21846 5.20666 1.47161 5.17499 1.746L3.09824 19.746C3.08005 19.9036 3.0954 20.0633 3.1433 20.2146C3.19121 20.3659 3.27057 20.5053 3.37618 20.6237C3.48179 20.7422 3.61126 20.8369 3.75608 20.9018C3.90091 20.9666 4.05781 21.0001 4.21649 21H7.80749L7.64999 21.9401C7.62313 22.1013 7.63172 22.2665 7.67517 22.424C7.71861 22.5816 7.79586 22.7278 7.90154 22.8525C8.00722 22.9771 8.1388 23.0773 8.28712 23.1459C8.43543 23.2146 8.59693 23.2501 8.76037 23.25H12.4627C12.737 23.25 13.0017 23.1499 13.2073 22.9684C13.4129 22.7869 13.5451 22.5366 13.5791 22.2645L14.2061 17.25H17.625C18.3867 17.25 19.1405 17.0954 19.8407 16.7954C20.5408 16.4953 21.1728 16.0563 21.6982 15.5047C22.2235 14.9532 22.6314 14.3007 22.8971 13.5868C23.1627 12.8729 23.2806 12.1125 23.2436 11.3516C23.1732 10.1073 22.693 8.92125 21.878 7.97834C21.063 7.03542 19.959 6.38862 18.738 6.13875ZM3.93749 20.1248C3.90204 20.0854 3.87541 20.0389 3.85937 19.9884C3.84333 19.9378 3.83826 19.8845 3.84449 19.8319L5.92199 1.83188C5.93255 1.74065 5.97622 1.65647 6.04472 1.5953C6.11322 1.53413 6.20178 1.50022 6.29362 1.5H13.125C14.3561 1.50196 15.5409 1.96935 16.4418 2.80841C17.3427 3.64747 17.893 4.79614 17.9824 6.024C17.8151 6.00975 17.6449 6 17.4761 6H10.7932C10.5172 6.00002 10.2508 6.10151 10.0448 6.28516C9.83874 6.46881 9.70739 6.7218 9.67574 6.996L9.31687 10.1063C9.31123 10.1552 9.31528 10.2047 9.32879 10.2521C9.34231 10.2995 9.36502 10.3437 9.39563 10.3823C9.42623 10.4209 9.46414 10.453 9.50719 10.477C9.55023 10.5009 9.59757 10.5161 9.64649 10.5218C9.69542 10.5274 9.74497 10.5233 9.79233 10.5098C9.83969 10.4963 9.88393 10.4736 9.92251 10.443C9.96109 10.4124 9.99327 10.3745 10.0172 10.3314C10.0411 10.2884 10.0564 10.2411 10.062 10.1921L10.4209 7.08188C10.4314 6.99052 10.4752 6.90624 10.5439 6.84505C10.6125 6.78386 10.7013 6.75003 10.7932 6.75H17.475C17.6447 6.75 17.8126 6.75813 17.9786 6.77438C17.8776 7.99288 17.3227 9.12903 16.4239 9.95789C15.525 10.7867 14.3477 11.2479 13.125 11.25H10.0372C9.76302 11.25 9.49824 11.3501 9.29266 11.5316C9.08708 11.7131 8.95487 11.9634 8.92087 12.2355L7.91887 20.25H4.21649C4.16375 20.2502 4.11158 20.2391 4.06346 20.2175C4.01535 20.1959 3.9724 20.1643 3.93749 20.1248ZM21.1541 14.9872C20.7004 15.4671 20.1532 15.8489 19.5462 16.1091C18.9392 16.3693 18.2854 16.5023 17.625 16.5H13.875C13.7836 16.5 13.6954 16.5334 13.6269 16.5939C13.5584 16.6544 13.5143 16.7378 13.503 16.8285L12.8351 22.1715C12.8238 22.2622 12.7797 22.3457 12.7111 22.4062C12.6425 22.4667 12.5542 22.5001 12.4627 22.5H8.76037C8.70593 22.5 8.65215 22.4881 8.60277 22.4652C8.55339 22.4423 8.50958 22.4089 8.4744 22.3674C8.43922 22.3258 8.4135 22.2771 8.39903 22.2247C8.38456 22.1722 8.38169 22.1172 8.39062 22.0635L8.61974 20.6869C8.61974 20.6842 8.61974 20.6816 8.61974 20.6794C8.61974 20.6771 8.61974 20.6741 8.62199 20.6715L9.66487 12.3285C9.67621 12.2378 9.72031 12.1543 9.78889 12.0938C9.85747 12.0333 9.94579 11.9999 10.0372 12H13.125C14.5242 11.9982 15.8726 11.4755 16.9075 10.5338C17.9423 9.59209 18.5896 8.29883 18.723 6.906C19.7511 7.14587 20.6739 7.71195 21.3537 8.51965C22.0334 9.32735 22.4336 10.3333 22.4944 11.3873C22.5287 12.0473 22.4275 12.7075 22.1969 13.3269C21.9662 13.9463 21.6111 14.5119 21.1534 14.9888L21.1541 14.9872Z" fill="#231F20" stroke="black" stroke-width="0.5"/>
</svg>
