<svg width="24" height="24" viewBox="0 0 24 24" fill="none" xmlns="http://www.w3.org/2000/svg">
<path d="M15.4465 16.52L12.4365 13.51C12.3265 13.4 12.1965 13.38 12.1265 13.38C12.0565 13.38 11.9265 13.4 11.8165 13.51L8.79652 16.53C8.45652 16.87 7.92652 17.42 6.15652 17.42L9.86652 21.12C11.0365 22.29 12.9365 22.29 14.1065 21.12L17.8265 17.41C16.9165 17.41 16.1565 17.23 15.4465 16.52Z" fill="black"/>
<path d="M8.79652 7.47L11.8165 10.49C11.8965 10.57 12.0165 10.62 12.1265 10.62C12.2365 10.62 12.3565 10.57 12.4365 10.49L15.4265 7.5C16.1365 6.76 16.9465 6.59 17.8565 6.59L14.1365 2.88C12.9665 1.71 11.0665 1.71 9.89652 2.88L6.18652 6.58C7.94652 6.58 8.48652 7.16 8.79652 7.47Z" fill="black"/>
<path d="M21.1065 9.85L18.8565 7.59H17.5965C17.0565 7.59 16.5165 7.81 16.1465 8.2L13.1465 11.2C12.8665 11.48 12.4965 11.62 12.1265 11.62C11.7665 11.62 11.3865 11.47 11.1065 11.2L8.08652 8.17C7.70652 7.79 7.18652 7.57 6.63652 7.57H5.16652L2.87652 9.87C1.70652 11.04 1.70652 12.94 2.87652 14.11L5.16652 16.41H6.64652C7.18652 16.41 7.70652 16.19 8.09652 15.81L11.1165 12.79C11.3965 12.51 11.7665 12.37 12.1365 12.37C12.5065 12.37 12.8765 12.51 13.1565 12.79L16.1665 15.8C16.5465 16.18 17.0665 16.4 17.6165 16.4H18.8765L21.1265 14.14C22.2965 12.96 22.2965 11.04 21.1065 9.85Z" fill="black"/>
</svg>
